<svg xmlns="http://www.w3.org/2000/svg" viewBox="0 0 64 64" width="100" height="100" fill="white">
  <!-- Phone Body -->
  <path d="M24 8h16c2.2 0 4 1.8 4 4v40c0 2.2-1.8 4-4 4H24c-2.2 0-4-1.8-4-4V12c0-2.2 1.8-4 4-4z" fill="#4CAF50" stroke="#2E7D32" stroke-width="2" rx="4" ry="4"/>
  
  <!-- Phone Screen -->
  <rect x="26" y="14" width="12" height="20" fill="#FFF" rx="2" ry="2"/>

  <!-- Speaker -->
  <circle cx="32" cy="40" r="2" fill="#2E7D32"/>

  <!-- Sound Waves -->
  <path d="M38 26c2 2.5 2 9.5 0 12" fill="none" stroke="#FF5722" stroke-width="2" stroke-linecap="round"/>
  <path d="M42 22c4 5 4 15 0 20" fill="none" stroke="#FF5722" stroke-width="2" stroke-linecap="round"/>
  <path d="M46 18c6 7.5 6 22.5 0 30" fill="none" stroke="#FF5722" stroke-width="2" stroke-linecap="round"/>
</svg>
