<svg xmlns="http://www.w3.org/2000/svg" viewBox="0 0 64 64" width="64" height="64">
  <g fill="none" stroke="currentColor" stroke-width="2" stroke-linecap="round" stroke-linejoin="round">
    <!-- Phone Handset -->
    <path d="M20 36l8-8c.8-.8 2-1 3-1l4 4c0 1 0 2 1 3l8 8c1 1 .8 2 0 3l-8 8c-1 .8-2 1-3 1l-4-4c-1 0-2 0-3-1l-8-8c-.8-.8-1-2 0-3z" fill="none" />
    
    <!-- Circular Tracking Waves -->
    <circle cx="32" cy="32" r="20" />
    <circle cx="32" cy="32" r="12" />
    <line x1="32" y1="12" x2="32" y2="8" />
    <line x1="32" y1="52" x2="32" y2="56" />
    <line x1="12" y1="32" x2="8" y2="32" />
    <line x1="52" y1="32" x2="56" y2="32" />
  </g>
</svg>
