<svg xmlns="http://www.w3.org/2000/svg" viewBox="0 0 64 64" width="64" height="64" fill="none">
  <g>
    <!-- Cloud -->
    <path fill="#4FC3F7" d="M48.9 29.1C47.5 20.7 41.4 15 35 15c-6.2 0-11.2 4.5-12.5 10.4-1.8-.6-3.7-.9-5.5-.9C13.5 24.5 9 29 9 34.4c0 4.9 4 8.9 8.9 8.9h31.3c4.9 0 8.9-4 8.9-8.9 0-3.3-1.8-6.2-4.3-7.2z"/>
    
    <!-- Message Bubble -->
    <path fill="#FFFFFF" d="M47 37c-3 0-5.5 2.5-5.5 5.5v7.5h-12v-7.5c0-3-2.5-5.5-5.5-5.5h-6c-3 0-5.5 2.5-5.5 5.5v8.5h35v-8.5c0-3-2.5-5.5-5.5-5.5h-6z"/>
    
    <!-- Signal Waves -->
    <path fill="none" stroke="#FF7043" stroke-width="2" d="M26 25c4 0 7.5-3 7.5-7.5"/>
    <path fill="none" stroke="#FF7043" stroke-width="2" d="M20 32c3 0 5.5-2.5 5.5-5.5"/>
    <path fill="none" stroke="#FF7043" stroke-width="2" d="M14 39c2 0 4-1.5 4-4"/>
  </g>
</svg>
