<svg xmlns="http://www.w3.org/2000/svg" viewBox="0 0 64 64" width="100" height="100" fill="none">
  <!-- Outer Circle -->
  <circle cx="32" cy="32" r="30" stroke="#4CAF50" stroke-width="2" fill="none"/>

  <!-- Central User Icon -->
  <circle cx="32" cy="32" r="6" fill="#4CAF50"/>
  <path d="M28 40c0-2.21 2.69-4 6-4s6 1.79 6 4v2H28v-2z" fill="#4CAF50"/>

  <!-- Top User -->
  <circle cx="32" cy="12" r="4" fill="#FFC107"/>
  <path d="M28 18c0-1.65 1.79-3 4-3s4 1.35 4 3v1h-8v-1z" fill="#FFC107"/>

  <!-- Left User -->
  <circle cx="12" cy="32" r="4" fill="#03A9F4"/>
  <path d="M8 38c0-1.65 1.79-3 4-3s4 1.35 4 3v1H8v-1z" fill="#03A9F4"/>

  <!-- Right User -->
  <circle cx="52" cy="32" r="4" fill="#E91E63"/>
  <path d="M48 38c0-1.65 1.79-3 4-3s4 1.35 4 3v1h-8v-1z" fill="#E91E63"/>

  <!-- Connecting Lines -->
  <line x1="32" y1="18" x2="32" y2="26" stroke="#4CAF50" stroke-width="2"/>
  <line x1="18" y1="32" x2="26" y2="32" stroke="#4CAF50" stroke-width="2"/>
  <line x1="38" y1="32" x2="46" y2="32" stroke="#4CAF50" stroke-width="2"/>
</svg>
