<svg version="1.1" id="Layer_1" xmlns="http://www.w3.org/2000/svg" xmlns:xlink="http://www.w3.org/1999/xlink" x="0px" y="0px"
	 width="100%" viewBox="0 0 413 414" enable-background="new 0 0 413 414" xml:space="preserve">
<path fill="#FFFFFF" opacity="1.000000" stroke="none" 
	d="
M0.999999,191.000000 
	C1.000000,127.683716 1.000000,64.367432 1.000000,1.025572 
	C138.612549,1.025572 276.225128,1.025572 413.918823,1.025572 
	C413.918823,138.908707 413.918823,276.817474 413.918823,414.863129 
	C276.333405,414.863129 138.666733,414.863129 1.000000,414.863129 
	C1.000000,352.235260 1.000000,289.585480 1.321076,226.718567 
	C2.752413,234.056061 3.518535,241.680664 5.037784,249.152130 
	C9.504982,271.121216 16.878145,292.035095 28.763884,311.580780 
	C71.471115,386.139923 149.710907,415.944122 205.637909,413.311310 
	C205.637909,398.434052 205.637909,383.557281 205.637909,368.600800 
	C199.683685,368.098022 194.070969,367.718994 188.479446,367.136475 
	C153.172775,363.458038 122.819656,348.933655 96.759903,325.082977 
	C85.251129,314.549805 76.228928,302.007874 67.719727,288.665527 
	C67.113113,287.294617 66.587921,286.255219 66.044777,285.225342 
	C42.879047,241.300018 40.362404,196.112137 58.011292,149.803894 
	C60.665310,142.840134 64.232292,136.224319 67.622467,129.218445 
	C68.546303,128.043472 69.279930,127.132141 69.894936,126.146774 
	C94.361931,86.944656 129.350540,62.567673 174.378082,52.867706 
	C184.704987,50.643055 195.461456,50.412422 206.461166,49.416405 
	C207.730362,49.628098 208.557724,49.718601 209.387009,49.742416 
	C257.292603,51.118324 296.666626,70.462883 327.874603,106.518257 
	C333.931702,113.516190 338.812744,121.532074 344.298615,129.410767 
	C357.954071,153.948242 365.066437,179.859268 365.346954,207.687836 
	C365.557312,228.556885 361.569489,248.574982 353.861389,267.930328 
	C346.430481,263.807770 339.383179,259.706268 332.263275,255.734970 
	C323.807495,251.018555 319.676758,244.256256 319.807098,234.221054 
	C319.988312,220.264221 320.564178,206.081528 318.504425,192.365967 
	C308.846649,128.056412 249.014389,85.309746 185.183105,97.178658 
	C150.815948,103.568954 124.458099,122.271751 106.872574,153.269409 
	C79.594383,201.540268 91.150398,262.743866 134.362656,297.426086 
	C176.903870,331.569794 232.278290,328.911377 268.075012,303.792328 
	C259.759491,293.185089 251.348145,282.671753 243.218277,271.945129 
	C240.963272,268.969849 239.118591,268.646149 235.803741,270.243073 
	C213.332962,281.068573 191.322891,279.628479 170.073380,266.883270 
	C146.085419,252.495605 133.240021,223.434143 139.115860,195.995056 
	C140.730682,188.454117 144.206528,181.311676 147.133698,173.831573 
	C147.912094,172.994049 148.393372,172.316818 148.857117,171.627777 
	C164.966827,147.691711 192.729874,136.212784 219.964081,142.229874 
	C248.511658,148.537155 269.273590,169.747543 273.030457,198.792465 
	C274.917908,213.384781 273.928589,228.354416 274.158203,243.154694 
	C274.478241,263.785828 283.205383,279.595703 301.074890,290.106049 
	C316.559509,299.213715 332.119904,308.192627 347.661102,317.203827 
	C355.378723,321.678711 363.128418,326.098358 371.076782,330.665497 
	C380.016327,317.870117 388.170898,305.385773 393.660065,290.997528 
	C394.256104,290.013306 394.673828,289.291565 394.993530,288.528717 
	C410.798035,250.817596 414.798798,211.754776 407.678101,171.623856 
	C403.582672,148.542603 395.694885,126.725838 383.222717,106.338669 
	C367.415222,78.682907 346.354126,56.278614 320.237762,38.768208 
	C285.735046,15.634956 247.653473,3.900995 205.538116,4.098422 
	C197.770203,4.410365 190.413773,4.360901 183.168350,5.233389 
	C136.367630,10.869095 95.844131,29.788816 62.204758,63.026497 
	C49.007893,76.065773 37.341400,90.291679 28.380489,107.005791 
	C16.850677,126.770630 9.155622,147.647064 4.870129,169.782028 
	C3.503672,176.839890 2.285837,183.926529 0.999999,191.000000 
z"/>
<path fill="#FF9D5C" opacity="1.000000" stroke="none" 
	d="
M0.999999,191.468658 
	C2.285837,183.926529 3.503672,176.839890 4.870129,169.782028 
	C9.155622,147.647064 16.850677,126.770630 28.732422,107.158920 
	C33.109478,109.165123 36.942684,111.142807 40.644302,113.341980 
	C49.587887,118.655457 58.470028,124.072350 67.376945,129.447540 
	C64.232292,136.224319 60.665310,142.840134 58.011292,149.803894 
	C40.362404,196.112137 42.879047,241.300018 66.044777,285.225342 
	C66.587921,286.255219 67.113113,287.294617 67.422523,288.818298 
	C54.350163,296.621002 41.501961,303.934937 28.653755,311.248871 
	C16.878145,292.035095 9.504982,271.121216 5.037784,249.152130 
	C3.518535,241.680664 2.752413,234.056061 1.321076,226.250717 
	C1.000000,214.645767 1.000000,203.291550 0.999999,191.468658 
z"/>
<path fill="#60D7AB" opacity="1.000000" stroke="none" 
	d="
M393.436035,291.240814 
	C388.170898,305.385773 380.016327,317.870117 371.076782,330.665497 
	C363.128418,326.098358 355.378723,321.678711 347.661102,317.203827 
	C332.119904,308.192627 316.559509,299.213715 301.074890,290.106049 
	C283.205383,279.595703 274.478241,263.785828 274.158203,243.154694 
	C273.928589,228.354416 274.917908,213.384781 273.030457,198.792465 
	C269.273590,169.747543 248.511658,148.537155 219.964081,142.229874 
	C192.729874,136.212784 164.966827,147.691711 148.857117,171.627777 
	C148.393372,172.316818 147.912094,172.994049 146.771881,173.845612 
	C142.184982,171.974884 138.235794,169.989578 134.351318,167.884872 
	C125.245689,162.951248 116.171036,157.960449 107.083855,152.992783 
	C124.458099,122.271751 150.815948,103.568954 185.183105,97.178658 
	C249.014389,85.309746 308.846649,128.056412 318.504425,192.365967 
	C320.564178,206.081528 319.988312,220.264221 319.807098,234.221054 
	C319.676758,244.256256 323.807495,251.018555 332.263275,255.734970 
	C339.383179,259.706268 346.430481,263.807770 354.146179,268.094513 
	C367.666962,275.971863 380.551514,283.606323 393.436035,291.240814 
z"/>
<path fill="#40B3A4" opacity="1.000000" stroke="none" 
	d="
M106.872574,153.269409 
	C116.171036,157.960449 125.245689,162.951248 134.351318,167.884872 
	C138.235794,169.989578 142.184982,171.974884 146.466583,174.000427 
	C144.206528,181.311676 140.730682,188.454117 139.115860,195.995056 
	C133.240021,223.434143 146.085419,252.495605 170.073380,266.883270 
	C191.322891,279.628479 213.332962,281.068573 235.803741,270.243073 
	C239.118591,268.646149 240.963272,268.969849 243.218277,271.945129 
	C251.348145,282.671753 259.759491,293.185089 268.075012,303.792328 
	C232.278290,328.911377 176.903870,331.569794 134.362656,297.426086 
	C91.150398,262.743866 79.594383,201.540268 106.872574,153.269409 
z"/>
<path fill="#FFCB61" opacity="1.000000" stroke="none" 
	d="
M28.763887,311.580780 
	C41.501961,303.934937 54.350163,296.621002 67.495567,289.154266 
	C76.228928,302.007874 85.251129,314.549805 96.759903,325.082977 
	C122.819656,348.933655 153.172775,363.458038 188.479446,367.136475 
	C194.070969,367.718994 199.683685,368.098022 205.637909,368.600800 
	C205.637909,383.557281 205.637909,398.434052 205.637909,413.311310 
	C149.710907,415.944122 71.471115,386.139923 28.763887,311.580780 
z"/>
<path fill="#7F62FF" opacity="1.000000" stroke="none" 
	d="
M344.236298,129.078400 
	C338.812744,121.532074 333.931702,113.516190 327.874603,106.518257 
	C296.666626,70.462883 257.292603,51.118324 209.387009,49.742416 
	C208.557724,49.718601 207.730362,49.628098 206.453033,49.010658 
	C206.002945,33.689526 206.001938,18.926449 206.000946,4.163373 
	C247.653473,3.900995 285.735046,15.634956 320.237762,38.768208 
	C346.354126,56.278614 367.415222,78.682907 382.904114,106.541977 
	C369.860687,114.414497 357.048492,121.746445 344.236298,129.078400 
z"/>
<path fill="#FF607E" opacity="1.000000" stroke="none" 
	d="
M205.538116,4.098422 
	C206.001938,18.926449 206.002945,33.689526 206.012085,48.858353 
	C195.461456,50.412422 184.704987,50.643055 174.378082,52.867706 
	C129.350540,62.567673 94.361931,86.944656 69.894936,126.146774 
	C69.279930,127.132141 68.546303,128.043472 67.622467,129.218445 
	C58.470028,124.072350 49.587887,118.655457 40.644302,113.341980 
	C36.942684,111.142807 33.109478,109.165123 28.984184,106.933578 
	C37.341400,90.291679 49.007893,76.065773 62.204758,63.026497 
	C95.844131,29.788816 136.367630,10.869095 183.168350,5.233389 
	C190.413773,4.360901 197.770203,4.410365 205.538116,4.098422 
z"/>
<path fill="#5B3EBE" opacity="1.000000" stroke="none" 
	d="
M344.298615,129.410767 
	C357.048492,121.746445 369.860687,114.414497 382.991516,106.879242 
	C395.694885,126.725838 403.582672,148.542603 407.678101,171.623856 
	C414.798798,211.754776 410.798035,250.817596 394.993530,288.528717 
	C394.673828,289.291565 394.256104,290.013306 393.660065,290.997528 
	C380.551514,283.606323 367.666962,275.971863 354.497681,268.173187 
	C361.569489,248.574982 365.557312,228.556885 365.346954,207.687836 
	C365.066437,179.859268 357.954071,153.948242 344.298615,129.410767 
z"/>
</svg>