<svg version="1.1" id="Layer_1" xmlns="http://www.w3.org/2000/svg" xmlns:xlink="http://www.w3.org/1999/xlink" x="0px" y="0px"
	 width="100%" viewBox="0 0 75 81" enable-background="new 0 0 75 81" xml:space="preserve">
<path fill="#DFE0E6" opacity="1.000000" stroke="none" 
	d="
M1.000000,39.000000 
	C1.000000,26.333336 1.000000,13.666673 1.000000,1.000007 
	C25.999990,1.000005 50.999981,1.000005 75.999977,1.000002 
	C75.999985,27.999985 75.999985,54.999969 75.999992,81.999969 
	C51.000023,81.999977 26.000042,81.999977 1.000032,81.999985 
	C1.000000,81.000000 1.000000,80.000000 1.369020,78.550911 
	C3.407462,77.126694 5.363772,76.443161 6.699561,75.128937 
	C15.123390,66.841103 23.415949,58.419674 31.738083,50.028706 
	C35.336388,46.400635 38.901821,42.739975 42.731487,38.840256 
	C40.976398,37.204189 39.693527,36.008312 37.393333,33.864105 
	C34.045918,37.640877 31.023920,41.406063 27.634727,44.805119 
	C18.842707,53.622719 9.889109,62.279209 1.000001,71.000000 
	C1.000000,67.969406 1.000000,64.938812 1.395829,61.414837 
	C3.928288,59.963032 6.544025,59.498634 8.124060,57.966297 
	C18.648069,47.759983 28.925070,37.299553 39.337200,26.977036 
	C43.877701,22.475616 47.784927,22.184803 51.464878,25.860485 
	C55.119610,29.510969 54.593502,33.376270 50.079742,37.918625 
	C39.398525,48.667492 28.722115,59.423618 18.247406,70.371651 
	C17.097572,71.573448 17.273342,74.043541 16.834284,75.925385 
	C18.740694,75.736443 21.377092,76.290497 22.441568,75.244637 
	C34.199951,63.691933 45.807873,51.980968 57.243790,40.107941 
	C61.247223,35.951496 61.121681,30.627069 59.195801,25.569290 
	C57.191963,20.306782 53.082062,17.516176 47.388264,16.940727 
	C41.013260,16.296431 36.782749,19.751492 32.641861,23.885517 
	C22.173731,34.336300 11.557124,44.638359 1.000001,55.000000 
	C1.000000,51.638714 1.000000,48.277424 1.355910,44.482513 
	C3.889624,43.444118 6.691737,43.498829 8.142179,42.125729 
	C16.486580,34.226307 24.407784,25.882128 32.669956,17.892981 
	C42.876240,8.023973 58.809845,11.473272 63.741978,24.612537 
	C66.944183,33.143246 63.957447,40.229286 57.851883,46.356068 
	C50.208218,54.026291 42.454426,61.592545 35.026951,69.466644 
	C33.815449,70.750999 34.042168,73.391991 33.604141,75.405945 
	C35.506145,74.986633 38.012314,75.197754 39.213238,74.046883 
	C47.751431,65.864487 56.223015,57.592197 64.328690,48.984016 
	C74.603455,38.072281 73.922806,22.710257 63.120434,12.396369 
	C53.274361,2.995540 37.890461,3.484323 27.627239,13.604507 
	C20.153458,20.974129 12.796532,28.462292 5.318366,35.827404 
	C4.058970,37.067760 2.448344,37.951492 1.000000,39.000000 
z"/>
<path fill="#567AEA" opacity="1.000000" stroke="none" 
	d="
M1.000000,39.416664 
	C2.448344,37.951492 4.058970,37.067760 5.318366,35.827404 
	C12.796532,28.462292 20.153458,20.974129 27.627239,13.604507 
	C37.890461,3.484323 53.274361,2.995540 63.120434,12.396369 
	C73.922806,22.710257 74.603455,38.072281 64.328690,48.984016 
	C56.223015,57.592197 47.751431,65.864487 39.213238,74.046883 
	C38.012314,75.197754 35.506145,74.986633 33.604141,75.405945 
	C34.042168,73.391991 33.815449,70.750999 35.026951,69.466644 
	C42.454426,61.592545 50.208218,54.026291 57.851883,46.356068 
	C63.957447,40.229286 66.944183,33.143246 63.741978,24.612537 
	C58.809845,11.473272 42.876240,8.023973 32.669956,17.892981 
	C24.407784,25.882128 16.486580,34.226307 8.142179,42.125729 
	C6.691737,43.498829 3.889624,43.444118 1.355910,44.024445 
	C1.000000,42.611111 1.000000,41.222221 1.000000,39.416664 
z"/>
<path fill="#597DEA" opacity="1.000000" stroke="none" 
	d="
M1.000001,55.428467 
	C11.557124,44.638359 22.173731,34.336300 32.641861,23.885517 
	C36.782749,19.751492 41.013260,16.296431 47.388264,16.940727 
	C53.082062,17.516176 57.191963,20.306782 59.195801,25.569290 
	C61.121681,30.627069 61.247223,35.951496 57.243790,40.107941 
	C45.807873,51.980968 34.199951,63.691933 22.441568,75.244637 
	C21.377092,76.290497 18.740694,75.736443 16.834284,75.925385 
	C17.273342,74.043541 17.097572,71.573448 18.247406,70.371651 
	C28.722115,59.423618 39.398525,48.667492 50.079742,37.918625 
	C54.593502,33.376270 55.119610,29.510969 51.464878,25.860485 
	C47.784927,22.184803 43.877701,22.475616 39.337200,26.977036 
	C28.925070,37.299553 18.648069,47.759983 8.124060,57.966297 
	C6.544025,59.498634 3.928288,59.963032 1.395829,60.960724 
	C1.000000,59.285641 1.000000,57.571285 1.000001,55.428467 
z"/>
<path fill="#567BEA" opacity="1.000000" stroke="none" 
	d="
M1.000001,71.437500 
	C9.889109,62.279209 18.842707,53.622719 27.634727,44.805119 
	C31.023920,41.406063 34.045918,37.640877 37.393333,33.864105 
	C39.693527,36.008312 40.976398,37.204189 42.731487,38.840256 
	C38.901821,42.739975 35.336388,46.400635 31.738083,50.028706 
	C23.415949,58.419674 15.123390,66.841103 6.699561,75.128937 
	C5.363772,76.443161 3.407462,77.126694 1.369020,78.050911 
	C1.000000,75.958336 1.000000,73.916664 1.000001,71.437500 
z"/>
</svg>