<svg xmlns="http://www.w3.org/2000/svg" viewBox="0 0 64 64" width="64" height="64">
  <!-- Outer Circle -->
  <path fill="#FEFEFF" opacity="1" d="
    M40.001724,64.000000 
    C28.001310,64.000000 16.501360,64.000000 4.001058,64.000000 
    C4.000705,45.667210 4.000705,27.334423 4.000353,4.001225 
    C22.999378,4.000817 41.998756,4.000817 60.998604,4.000408 
    C60.999069,27.332638 60.999069,49.665276 60.999535,63.998955 
    C54.834064,64.000000 48.668129,64.000000 40.001724,64.000000" />

  <!-- Inner Details 1 -->
  <path fill="#1256F6" opacity="1" d="
    M44.483063,33.873425 
    C45.935394,34.303505 48.192547,34.350534 48.627666,35.264751 
    C49.124065,36.307732 48.419537,38.500839 47.497105,39.532902 
    C44.641899,42.727440 41.604450,45.818825 38.270824,48.492813 
    C37.142097,49.398193 34.919430,48.939770 33.196682,49.104588 
    C33.473015,47.516541 33.243141,45.526138 34.123672,44.418335 
    C36.461887,41.476608 39.279354,38.915810 42.092094,35.696373 
    C43.013020,34.750641 43.748043,34.312033 44.483063,33.873425" />

  <!-- Inner Details 2 -->
  <path fill="#0F54F6" opacity="1" d="
    M17.903767,30.962830 
    C14.444678,28.721539 14.808777,26.375858 17.562405,23.766823 
    C20.342354,21.132847 22.782728,18.096104 25.776699,15.753122 
    C27.064352,14.745446 29.372881,15.042295 31.217609,14.746475 
    C30.866104,16.440788 31.011789,18.518036 30.061834,19.751425 
    C27.942654,22.502899 25.276470,24.833073 22.406586,27.817162 
    C20.621265,29.187225 19.262516,30.075027 17.903767,30.962830" />

  <!-- Inner Details 3 -->
  <path fill="#F73A7D" opacity="1" d="
    M44.871437,33.576244 
    C43.748043,34.312033 43.013020,34.750641 42.072876,35.381027 
    C39.036884,33.082737 36.090904,30.706141 33.450951,28.027893 
    C32.734056,27.300604 32.530977,25.533293 32.861948,24.486801 
    C33.098228,23.739717 34.602493,22.999519 35.573151,22.954769 
    C38.196316,22.833832 44.869019,30.136911 44.871437,33.576244" />

  <!-- Inner Details 4 -->
  <path fill="#F73A7D" opacity="1" d="
    M18.060659,31.263311 
    C19.262516,30.075027 20.621265,29.187225 22.225399,28.121777 
    C25.359756,30.604984 28.425684,33.108370 31.023825,36.028028 
    C31.750267,36.844362 31.097082,38.888397 31.076769,40.369255 
    C29.588722,40.253212 27.629263,40.698689 26.699270,39.917927 
    C23.669563,37.374378 21.015911,34.382906 18.060659,31.263311" />
</svg>
