<svg version="1.1" id="Layer_1" xmlns="http://www.w3.org/2000/svg" xmlns:xlink="http://www.w3.org/1999/xlink" x="0px" y="0px"
	 width="100%" viewBox="0 0 59 60" enable-background="new 0 0 59 60" xml:space="preserve">
<path fill="#665FFF" opacity="1.000000" stroke="none" 
	d="
M1.000000,58.000000 
	C1.000000,39.048164 1.000000,20.096329 1.000000,1.072247 
	C20.568436,1.072247 40.137184,1.072247 60.000000,1.072247 
	C60.000000,19.686533 60.000000,38.374607 59.709026,57.204121 
	C58.278702,58.563705 57.139347,59.781853 56.000000,61.000000 
	C54.285641,61.000000 52.571285,61.000000 50.274399,60.590664 
	C37.763020,60.122459 25.834164,60.048206 13.905307,60.047527 
	C13.270223,60.047489 12.635103,60.668243 12.000000,61.000000 
	C10.285642,61.000000 8.571282,61.000000 6.756079,60.710129 
	C4.770155,59.613503 2.885078,58.806751 1.000000,58.000000 
M18.914932,44.098179 
	C19.793621,45.161957 20.466522,46.778660 21.586056,47.195328 
	C26.886490,49.168045 32.298904,49.594643 37.632736,47.127304 
	C41.628662,45.278858 43.777130,42.167683 43.999668,37.750942 
	C44.224308,33.292454 42.336533,29.978952 38.405823,27.961004 
	C36.191471,26.824202 33.728191,26.162292 31.548586,24.972275 
	C30.559841,24.432442 29.987846,23.129301 29.226797,22.172421 
	C30.314640,21.588972 31.432230,20.466009 32.484703,20.524036 
	C35.545574,20.692799 38.580368,21.334541 42.075844,21.858263 
	C41.442253,18.304686 44.468975,13.652851 39.500874,12.631885 
	C34.837936,11.673632 29.604143,11.944993 24.933691,13.025081 
	C20.622000,14.022202 18.419462,17.981043 18.300335,22.609982 
	C18.182585,27.185450 20.706522,30.066740 24.614874,31.921852 
	C26.418589,32.777992 28.446344,33.245228 30.096241,34.314922 
	C31.324558,35.111286 32.108746,36.592674 33.090733,37.768974 
	C31.559063,38.416653 29.966274,39.713840 28.508463,39.576660 
	C25.483541,39.292004 22.530268,38.245956 18.884293,37.349930 
	C18.884293,39.674301 18.884293,41.464855 18.914932,44.098179 
z"/>
<path fill="#0E0E0E" opacity="1.000000" stroke="none" 
	d="
M12.468658,61.000000 
	C12.635103,60.668243 13.270223,60.047489 13.905307,60.047527 
	C25.834164,60.048206 37.763020,60.122459 49.845940,60.590664 
	C37.645771,61.000000 25.291544,61.000000 12.468658,61.000000 
z"/>
<path fill="#0E0E0E" opacity="1.000000" stroke="none" 
	d="
M1.000000,58.500000 
	C2.885078,58.806751 4.770155,59.613503 6.327617,60.710129 
	C4.551853,59.787033 1.071129,63.655510 1.000000,58.500000 
z"/>
<path fill="#0E0E0E" opacity="1.000000" stroke="none" 
	d="
M56.500000,61.000000 
	C57.139347,59.781853 58.278702,58.563705 59.709026,57.672779 
	C60.498802,60.498802 59.498802,61.498802 56.500000,61.000000 
z"/>
<path fill="#F4F3FF" opacity="1.000000" stroke="none" 
	d="
M18.899612,43.676796 
	C18.884293,41.464855 18.884293,39.674301 18.884293,37.349930 
	C22.530268,38.245956 25.483541,39.292004 28.508463,39.576660 
	C29.966274,39.713840 31.559063,38.416653 33.090733,37.768974 
	C32.108746,36.592674 31.324558,35.111286 30.096241,34.314922 
	C28.446344,33.245228 26.418589,32.777992 24.614874,31.921852 
	C20.706522,30.066740 18.182585,27.185450 18.300335,22.609982 
	C18.419462,17.981043 20.622000,14.022202 24.933691,13.025081 
	C29.604143,11.944993 34.837936,11.673632 39.500874,12.631885 
	C44.468975,13.652851 41.442253,18.304686 42.075844,21.858263 
	C38.580368,21.334541 35.545574,20.692799 32.484703,20.524036 
	C31.432230,20.466009 30.314640,21.588972 29.226799,22.172421 
	C29.987846,23.129301 30.559841,24.432442 31.548586,24.972275 
	C33.728191,26.162292 36.191471,26.824202 38.405823,27.961004 
	C42.336533,29.978952 44.224308,33.292454 43.999668,37.750942 
	C43.777130,42.167683 41.628662,45.278858 37.632736,47.127304 
	C32.298904,49.594643 26.886490,49.168045 21.586056,47.195328 
	C20.466522,46.778660 19.793621,45.161957 18.899612,43.676796 
z"/>
</svg>